<svg width="512" height="512" viewBox="0 0 100 100" xmlns="http://www.w3.org/2000/svg">
<rect width="100" height="100" rx="22" fill="#1E150E"/>
<g transform="translate(19.0 19.0) scale(0.62)"><g fill="none" stroke="#BA9C7B" stroke-width="6.5" stroke-linecap="round" stroke-linejoin="round"><path d="M50 42 C 44 33 44 20 50 13 C 56 20 56 33 50 42"/><path d="M50 42 C 44 33 44 20 50 13 C 56 20 56 33 50 42" transform="rotate(72 50 50)"/><path d="M50 42 C 44 33 44 20 50 13 C 56 20 56 33 50 42" transform="rotate(144 50 50)"/><path d="M50 42 C 44 33 44 20 50 13 C 56 20 56 33 50 42" transform="rotate(216 50 50)"/><path d="M50 42 C 44 33 44 20 50 13 C 56 20 56 33 50 42" transform="rotate(288 50 50)"/></g><circle cx="50" cy="50" r="6" fill="#F9F6F4"/></g>
</svg>